<svg width="92" height="82" viewBox="0 0 92 82" fill="none" xmlns="http://www.w3.org/2000/svg">
<g opacity="0.8">
<path d="M39.5514 0C50.0411 0 60.1011 4.31963 67.5185 12.0086C74.9358 19.6976 79.1028 30.1261 79.1028 41C79.1028 51.8739 74.9358 62.3024 67.5185 69.9914C60.1011 77.6804 50.0411 82 39.5514 82C29.0617 82 19.0017 77.6804 11.5843 69.9914C4.16701 62.3024 0 51.8739 0 41C0 30.1261 4.16701 19.6976 11.5843 12.0086C19.0017 4.31963 29.0617 0 39.5514 0ZM7.41589 41C7.41589 49.835 10.8016 58.3082 16.8282 64.5555C22.8547 70.8028 31.0285 74.3125 39.5514 74.3125C48.0743 74.3125 56.2481 70.8028 62.2746 64.5555C68.3012 58.3082 71.6869 49.835 71.6869 41C71.6869 32.165 68.3012 23.6918 62.2746 17.4445C56.2481 11.1972 48.0743 7.6875 39.5514 7.6875C31.0285 7.6875 22.8547 11.1972 16.8282 17.4445C10.8016 23.6918 7.41589 32.165 7.41589 41ZM31.5373 26.7884L52.6182 39.9032C52.8004 40.0173 52.9511 40.1782 53.0557 40.3703C53.1603 40.5625 53.2152 40.7794 53.2152 41C53.2152 41.2206 53.1603 41.4375 53.0557 41.6297C52.9511 41.8218 52.8004 41.9827 52.6182 42.0967L31.5373 55.2116C31.3498 55.3287 31.1358 55.3921 30.9169 55.3952C30.6981 55.3984 30.4824 55.3413 30.2918 55.2298C30.1013 55.1183 29.9427 54.9563 29.8323 54.7604C29.7219 54.5645 29.6637 54.3417 29.6636 54.1149V27.8902C29.6628 27.663 29.7204 27.4395 29.8304 27.2429C29.9405 27.0463 30.099 26.8836 30.2897 26.7715C30.4804 26.6593 30.6964 26.6018 30.9157 26.6047C31.1349 26.6077 31.3495 26.6711 31.5373 26.7884Z" fill="black"/>
</g>
</svg>
